<svg xmlns="http://www.w3.org/2000/svg" version="1.1" xmlns:xlink="http://www.w3.org/1999/xlink" xmlns:svgjs="http://svgjs.dev/svgjs" width="2000" height="1166" viewBox="0 0 2000 1166"><g transform="matrix(1,0,0,1,-1.2112696095522324,-0.6577045147038234)"><svg viewBox="0 0 396 231" data-background-color="#f0efeb" preserveAspectRatio="xMidYMid meet" height="1166" width="2000" xmlns="http://www.w3.org/2000/svg" xmlns:xlink="http://www.w3.org/1999/xlink"><g id="tight-bounds" transform="matrix(1,0,0,1,0.24008861730862918,0.13040861319568364)"><svg viewBox="0 0 395.52 230.73929143577814" height="230.73929143577814" width="395.52"><g><svg viewBox="0 0 395.52 230.73929143577814" height="230.73929143577814" width="395.52"><g><svg viewBox="0 0 395.52 230.73929143577814" height="230.73929143577814" width="395.52"><g id="textblocktransform"><svg viewBox="0 0 395.52 230.73929143577814" height="230.73929143577814" width="395.52" id="textblock"><g><svg viewBox="0 0 395.52 160.15928092072082" height="160.15928092072082" width="395.52"><path d="M394.594 34.351C392.735 17.727 387.435 13.105 387.435 13.105 371.165-4.018 350.86-0.328 332.619 2.133 300.414 2.233 268.339 5.89 236.208 7.852 168.767 8.151 100.749 3.23 33.643 15.366 27.339 19.09-6.54 16.097 1.121 36.479 3.129 44.958 10.456 54.367 10.232 62.147 11.236 63.51 12.631 60.385 13.226 62.347 15.309 67.633 18.711 65.14 21.501 68.265 17.614 76.611 20.403 83.56 23.062 90.841 18.377 92.736 12.371 91.839 9.675 98.123 9.396 102.678 7.89 101.813 6.235 101.614 5.026 101.481 2.59 101.979 2.999 103.409 4.394 108.297-1.594 111.123 2.162 115.911-0.422 121.098 3.948 125.586 3.353 131.205 3.278 132.336 3.687 133.3 4.338 133.566 7.22 134.996 3.018 137.789 3.464 140.814 33.029 161.495 65.104 147.198 95.394 156.707 103.259 150.057 97.346 159.068 100.489 157.671 102.943 156.042 104.728 162.792 107.499 158.968 107.927 157.871 107.276 155.278 108.8 155.776 109.6 156.042 110.307 155.976 110.418 154.446 110.586 152.152 109.117 153.582 108.726 152.385 112.947 146.334 111.906 160.73 115.866 160.132 115.68 158.37 114.528 155.843 116.889 156.175 119.232 153.648 119.306 151.554 121.389 157.239 121.463 158.469 121.835 159.334 122.43 159.932 128.938 153.748 135.409 162.127 142.233 159.334 146.417 156.275 150.433 160.996 154.672 159.833 156.16 158.902 157.666 157.239 159.098 160.032 176.632 160.631 195.319 158.137 211.943 160.132 256.364 156.408 303.836 161.661 350.674 156.741 361.719 154.845 373.192 152.152 383.958 149.991 383.958 149.991 392.679 144.073 392.679 117.473S394.538 94.199 394.817 73.02C395.096 51.84 396.398 50.976 394.538 34.351Z" opacity="1" fill="#4e6e62" data-fill-palette-color="tertiary"></path><g transform="matrix(1,0,0,1,55.76832,26.068561146666667)"><svg width="283.98335999999995" viewBox="-3.2 -40.2 154.44 58.75" height="108.02215862738748" data-palette-color="#ffffff"><path d="M59.45-35.3L59.45-35.3 57.3-34.9Q53.45-28.25 49.9-17L49.9-17Q48.55-12.75 46.1-7.23 43.65-1.7 40.65 3L40.65 3Q36.6 9.3 29.88 13.38 23.15 17.45 17.6 18.2L17.6 18.2Q15.05 18.55 11.8 18.55 8.55 18.55 5.1 17.4L5.1 17.4Q-0.3 15.6-2.3 11.5L-2.3 11.5Q-3.2 9.6-3.2 7.05-3.2 4.5-1.85 1.05L-1.85 1.05Q-0.9-1.25 1.5-3.25 3.9-5.25 5.25-5.3L5.25-5.3Q5.85-5.35 5.85-5.1L5.85-5.1Q5.8-4.9 5.2-4.6L5.2-4.6Q3.6-3.95 1.65-1.75-0.3 0.45-0.93 2.68-1.55 4.9-1.55 6.1L-1.55 6.1Q-1.55 9.75 0.4 12L0.4 12Q1.75 13.5 3.75 14.7 5.75 15.9 8.05 16.35L8.05 16.35Q11.45 17 13.45 17 15.45 17 17 16.6L17 16.6Q20.4 15.85 23.58 14.1 26.75 12.35 29.2 10.28 31.65 8.2 34.08 5.15 36.5 2.1 38.15-0.4 39.8-2.9 41.65-6.4L41.65-6.4Q44.65-12.1 47.8-19.5L47.8-19.5Q51.75-28.3 55.8-34.7L55.8-34.7Q48.85-33.55 41.65-29.7L41.65-29.7Q38-27.75 35.4-24.75L35.4-24.75Q32.05-20.95 32.05-16.6L32.05-16.6Q32.05-14.25 33.18-12.95 34.3-11.65 35.55-11.65 36.8-11.65 38.3-12.2 39.8-12.75 41-14.1L41-14.1Q42.9-16.3 42.9-19.15L42.9-19.15Q42.9-20.35 42.55-20.75L42.55-20.75Q41.95-21.15 42.45-21.5L42.45-21.5Q43-21.8 43.6-21.15L43.6-21.15Q44.1-20.05 44.1-18.57 44.1-17.1 43-15.2L43-15.2Q41.15-12.05 37.9-10.9L37.9-10.9Q36.4-10.4 35.05-10.4L35.05-10.4Q32.8-10.4 31-11.85L31-11.85Q28.7-13.75 28.7-16.95L28.7-16.95Q28.7-21 31.6-24.7L31.6-24.7Q33.8-27.55 36.77-29.4 39.75-31.25 43.5-32.7L43.5-32.7Q49.55-35.05 56.65-36L56.65-36Q57.25-37 58.45-38.35 59.65-39.7 60.45-39.95 61.25-40.2 61.75-40.2L61.75-40.2Q63.5-40.2 63.5-38.7L63.5-38.7Q63.45-37.35 62.4-36.63 61.35-35.9 59.45-35.3ZM61-38.6L61-38.6Q60.9-38.6 60.78-38.55 60.65-38.5 60.43-38.33 60.2-38.15 60-38 59.8-37.85 59.53-37.55 59.25-37.25 59.08-37.08 58.9-36.9 58.6-36.58 58.3-36.25 58.2-36.15L58.2-36.15Q61.65-36.75 61.6-38L61.6-38Q61.5-38.6 61-38.6ZM58-19.45Q57.3-18.85 56.45-18.85 55.6-18.85 55.1-19.45 54.6-20.05 54.7-20.9L54.7-20.9Q54.85-21.75 55.55-22.35 56.25-22.95 57.1-22.95 57.95-22.95 58.47-22.35 59-21.75 58.85-20.9 58.7-20.05 58-19.45ZM53.1-1.1L53.1-1.1Q54.05-1.1 55.1-2.05L55.1-2.05Q56.95-3.9 59.8-9.6L59.8-9.6Q60.15-10.35 60.5-10.05L60.5-10.05Q60.6-9.95 60.6-9.73 60.6-9.5 60.2-8.63 59.8-7.75 59.47-7.05 59.15-6.35 58.22-4.78 57.3-3.2 56.55-2.35L56.55-2.35Q54.5 0 52.67 0 50.85 0 50.05-1.1 49.25-2.2 49.25-3.55 49.25-4.9 49.9-6.5L49.9-6.5 53.1-14.65Q53.2-14.95 53.2-15.45 53.2-15.95 52.6-16.75L52.6-16.75 55.35-16.8Q56.5-16.8 56.7-16.38 56.9-15.95 56.4-15.05L56.4-15.05 52.4-5.7Q51.55-3.85 51.55-2.55L51.55-2.55Q51.55-1.1 53.1-1.1ZM74.95-16.4L74.95-16.4Q68.8-5.6 68.8-2.3L68.8-2.3Q68.8-1 69.75-1L69.75-1Q72.3-1 76.6-9.65L76.6-9.65Q76.9-10.35 77.2-10.2 77.5-10.05 77.5-9.8 77.5-9.55 77.3-9.2L77.3-9.2Q74.65-3.85 72.82-1.83 71 0.2 69.17 0.2 67.35 0.2 66.4-1.2L66.4-1.2Q65.9-1.85 65.9-2.98 65.9-4.1 66.4-5.7 66.9-7.3 69.15-10.9L69.15-10.9Q69.7-11.8 69.7-12.33 69.7-12.85 68.85-12.85 68-12.85 65.6-10.6L65.6-10.6Q62-7.3 58.65-0.7L58.65-0.7Q58.35-0.2 57.97-0.08 57.6 0.05 56.5 0.1 55.4 0.15 55.05 0.35L55.05 0.35Q55.85-1.25 58.2-6.2L58.2-6.2Q62.4-14.95 63.7-16.2L63.7-16.2Q64.3-16.8 65.35-16.8L65.35-16.8Q65.55-16.8 66.37-16.65 67.2-16.5 67.6-16.6L67.6-16.6Q65.75-15.6 61.55-7.2L61.55-7.2Q63.9-10.1 65.82-11.83 67.75-13.55 70.45-15.03 73.15-16.5 74.4-16.5L74.4-16.5Q74.7-16.5 74.95-16.4ZM133.19-35.3L133.19-35.3 131.04-34.9Q127.19-28.25 123.64-17L123.64-17Q122.29-12.75 119.84-7.23 117.39-1.7 114.39 3L114.39 3Q110.34 9.3 103.62 13.38 96.89 17.45 91.34 18.2L91.34 18.2Q88.79 18.55 85.54 18.55 82.29 18.55 78.84 17.4L78.84 17.4Q73.44 15.6 71.44 11.5L71.44 11.5Q70.54 9.6 70.54 7.05 70.54 4.5 71.89 1.05L71.89 1.05Q72.84-1.25 75.24-3.25 77.64-5.25 78.99-5.3L78.99-5.3Q79.59-5.35 79.59-5.1L79.59-5.1Q79.54-4.9 78.94-4.6L78.94-4.6Q77.34-3.95 75.39-1.75 73.44 0.45 72.82 2.68 72.19 4.9 72.19 6.1L72.19 6.1Q72.19 9.75 74.14 12L74.14 12Q75.49 13.5 77.49 14.7 79.49 15.9 81.79 16.35L81.79 16.35Q85.19 17 87.19 17 89.19 17 90.74 16.6L90.74 16.6Q94.14 15.85 97.32 14.1 100.49 12.35 102.94 10.28 105.39 8.2 107.82 5.15 110.24 2.1 111.89-0.4 113.54-2.9 115.39-6.4L115.39-6.4Q118.39-12.1 121.54-19.5L121.54-19.5Q125.49-28.3 129.54-34.7L129.54-34.7Q122.59-33.55 115.39-29.7L115.39-29.7Q111.74-27.75 109.14-24.75L109.14-24.75Q105.79-20.95 105.79-16.6L105.79-16.6Q105.79-14.25 106.92-12.95 108.04-11.65 109.29-11.65 110.54-11.65 112.04-12.2 113.54-12.75 114.74-14.1L114.74-14.1Q116.64-16.3 116.64-19.15L116.64-19.15Q116.64-20.35 116.29-20.75L116.29-20.75Q115.69-21.15 116.19-21.5L116.19-21.5Q116.74-21.8 117.34-21.15L117.34-21.15Q117.84-20.05 117.84-18.57 117.84-17.1 116.74-15.2L116.74-15.2Q114.89-12.05 111.64-10.9L111.64-10.9Q110.14-10.4 108.79-10.4L108.79-10.4Q106.54-10.4 104.74-11.85L104.74-11.85Q102.44-13.75 102.44-16.95L102.44-16.95Q102.44-21 105.34-24.7L105.34-24.7Q107.54-27.55 110.52-29.4 113.49-31.25 117.24-32.7L117.24-32.7Q123.29-35.05 130.39-36L130.39-36Q130.99-37 132.19-38.35 133.39-39.7 134.19-39.95 134.99-40.2 135.49-40.2L135.49-40.2Q137.24-40.2 137.24-38.7L137.24-38.7Q137.19-37.35 136.14-36.63 135.09-35.9 133.19-35.3ZM134.74-38.6L134.74-38.6Q134.64-38.6 134.52-38.55 134.39-38.5 134.17-38.33 133.94-38.15 133.74-38 133.54-37.85 133.27-37.55 132.99-37.25 132.82-37.08 132.64-36.9 132.34-36.58 132.04-36.25 131.94-36.15L131.94-36.15Q135.39-36.75 135.34-38L135.34-38Q135.24-38.6 134.74-38.6ZM131.74-19.45Q131.04-18.85 130.19-18.85 129.34-18.85 128.84-19.45 128.34-20.05 128.44-20.9L128.44-20.9Q128.59-21.75 129.29-22.35 129.99-22.95 130.84-22.95 131.69-22.95 132.22-22.35 132.74-21.75 132.59-20.9 132.44-20.05 131.74-19.45ZM126.84-1.1L126.84-1.1Q127.79-1.1 128.84-2.05L128.84-2.05Q130.69-3.9 133.54-9.6L133.54-9.6Q133.89-10.35 134.24-10.05L134.24-10.05Q134.34-9.95 134.34-9.73 134.34-9.5 133.94-8.63 133.54-7.75 133.22-7.05 132.89-6.35 131.97-4.78 131.04-3.2 130.29-2.35L130.29-2.35Q128.24 0 126.42 0 124.59 0 123.79-1.1 122.99-2.2 122.99-3.55 122.99-4.9 123.64-6.5L123.64-6.5 126.84-14.65Q126.94-14.95 126.94-15.45 126.94-15.95 126.34-16.75L126.34-16.75 129.09-16.8Q130.24-16.8 130.44-16.38 130.64-15.95 130.14-15.05L130.14-15.05 126.14-5.7Q125.29-3.85 125.29-2.55L125.29-2.55Q125.29-1.1 126.84-1.1ZM148.69-16.4L148.69-16.4Q142.54-5.6 142.54-2.3L142.54-2.3Q142.54-1 143.49-1L143.49-1Q146.04-1 150.34-9.65L150.34-9.65Q150.64-10.35 150.94-10.2 151.24-10.05 151.24-9.8 151.24-9.55 151.04-9.2L151.04-9.2Q148.39-3.85 146.56-1.83 144.74 0.2 142.91 0.2 141.09 0.2 140.14-1.2L140.14-1.2Q139.64-1.85 139.64-2.98 139.64-4.1 140.14-5.7 140.64-7.3 142.89-10.9L142.89-10.9Q143.44-11.8 143.44-12.33 143.44-12.85 142.59-12.85 141.74-12.85 139.34-10.6L139.34-10.6Q135.74-7.3 132.39-0.7L132.39-0.7Q132.09-0.2 131.71-0.08 131.34 0.05 130.24 0.1 129.14 0.15 128.79 0.35L128.79 0.35Q129.59-1.25 131.94-6.2L131.94-6.2Q136.14-14.95 137.44-16.2L137.44-16.2Q138.04-16.8 139.09-16.8L139.09-16.8Q139.29-16.8 140.11-16.65 140.94-16.5 141.34-16.6L141.34-16.6Q139.49-15.6 135.29-7.2L135.29-7.2Q137.64-10.1 139.56-11.83 141.49-13.55 144.19-15.03 146.89-16.5 148.14-16.5L148.14-16.5Q148.44-16.5 148.69-16.4Z" opacity="1" transform="matrix(1,0,0,1,0,0)" fill="#ffffff" class="wordmark-text-0" data-fill-palette-color="quaternary" id="text-0"></path></svg></g></svg></g><g transform="matrix(1,0,0,1,75.54432,185.66072004083995)"><svg viewBox="0 0 244.43135999999998 45.07857139493819" height="45.07857139493819" width="244.43135999999998"><g transform="matrix(1,0,0,1,0,0)"><svg width="244.43135999999998" viewBox="2.4 -37 254.83 47" height="45.07857139493819" data-palette-color="#60656c"><path d="M30.25-32.4L30.25-32.4Q30.85-32 30.95-31.38 31.05-30.75 30.65-30.15L30.65-30.15Q30.3-29.7 29.75-29.65 29.2-29.6 28.7-29.85L28.7-29.85Q26.8-31.1 24.63-31.8 22.45-32.5 19.95-32.5L19.95-32.5Q16.9-32.5 14.28-31.43 11.65-30.35 9.7-28.33 7.75-26.3 6.68-23.55 5.6-20.8 5.6-17.5L5.6-17.5Q5.6-14.1 6.7-11.33 7.8-8.55 9.78-6.55 11.75-4.55 14.35-3.5 16.95-2.45 19.95-2.45L19.95-2.45Q22.4-2.45 24.58-3.15 26.75-3.85 28.65-5.05L28.65-5.05Q29.15-5.35 29.73-5.28 30.3-5.2 30.65-4.7L30.65-4.7Q31.1-4.15 30.98-3.53 30.85-2.9 30.3-2.55L30.3-2.55Q29.05-1.75 27.35-1.05 25.65-0.35 23.75 0.08 21.85 0.5 19.95 0.5L19.95 0.5Q16.35 0.5 13.2-0.8 10.05-2.1 7.6-4.48 5.15-6.85 3.78-10.15 2.4-13.45 2.4-17.5L2.4-17.5Q2.4-21.4 3.75-24.68 5.1-27.95 7.5-30.35 9.9-32.75 13.1-34.1 16.3-35.45 19.95-35.45L19.95-35.45Q22.8-35.45 25.45-34.65 28.1-33.85 30.25-32.4ZM60.2-12.8L60.2-12.8Q60.2-9 58.52-5.98 56.85-2.95 54-1.23 51.15 0.5 47.55 0.5L47.55 0.5Q44 0.5 41.12-1.23 38.25-2.95 36.57-5.98 34.9-9 34.9-12.8L34.9-12.8Q34.9-16.65 36.57-19.65 38.25-22.65 41.12-24.4 44-26.15 47.55-26.15L47.55-26.15Q51.15-26.15 54-24.4 56.85-22.65 58.52-19.65 60.2-16.65 60.2-12.8ZM57.2-12.8L57.2-12.8Q57.2-15.85 55.95-18.23 54.7-20.6 52.52-21.98 50.35-23.35 47.55-23.35L47.55-23.35Q44.8-23.35 42.62-21.98 40.45-20.6 39.17-18.23 37.9-15.85 37.9-12.8L37.9-12.8Q37.9-9.75 39.17-7.4 40.45-5.05 42.62-3.68 44.8-2.3 47.55-2.3L47.55-2.3Q50.35-2.3 52.52-3.68 54.7-5.05 55.95-7.4 57.2-9.75 57.2-12.8ZM87.09-37L87.09-37Q87.75-37 88.17-36.58 88.59-36.15 88.59-35.5L88.59-35.5 88.59-1.5Q88.59-0.9 88.15-0.45 87.7 0 87.09 0L87.09 0Q86.4 0 86-0.45 85.59-0.9 85.59-1.5L85.59-1.5 85.59-7.45 86.45-8.15Q86.45-6.75 85.7-5.23 84.95-3.7 83.57-2.4 82.2-1.1 80.37-0.3 78.55 0.5 76.4 0.5L76.4 0.5Q73.09 0.5 70.42-1.25 67.75-3 66.2-6 64.65-9 64.65-12.85L64.65-12.85Q64.65-16.65 66.2-19.68 67.75-22.7 70.4-24.43 73.05-26.15 76.34-26.15L76.34-26.15Q78.45-26.15 80.3-25.4 82.15-24.65 83.57-23.35 85-22.05 85.82-20.38 86.65-18.7 86.65-16.9L86.65-16.9 85.59-17.65 85.59-35.5Q85.59-36.1 86-36.55 86.4-37 87.09-37ZM76.7-2.3L76.7-2.3Q79.34-2.3 81.4-3.68 83.45-5.05 84.62-7.43 85.8-9.8 85.8-12.85L85.8-12.85Q85.8-15.85 84.62-18.23 83.45-20.6 81.4-21.98 79.34-23.35 76.7-23.35L76.7-23.35Q74.09-23.35 72.02-21.98 69.95-20.6 68.77-18.23 67.59-15.85 67.59-12.85L67.59-12.85Q67.59-9.85 68.77-7.45 69.95-5.05 72.02-3.68 74.09-2.3 76.7-2.3ZM99.34-24.5L99.34-1.5Q99.34-0.9 98.89-0.45 98.44 0 97.84 0L97.84 0Q97.19 0 96.77-0.45 96.34-0.9 96.34-1.5L96.34-1.5 96.34-24.5Q96.34-25.1 96.77-25.55 97.19-26 97.84-26L97.84-26Q98.49-26 98.92-25.55 99.34-25.1 99.34-24.5L99.34-24.5ZM97.84-29.35L97.84-29.35Q96.79-29.35 96.27-29.83 95.74-30.3 95.74-31.2L95.74-31.2 95.74-31.7Q95.74-32.6 96.32-33.08 96.89-33.55 97.89-33.55L97.89-33.55Q98.84-33.55 99.37-33.08 99.89-32.6 99.89-31.7L99.89-31.7 99.89-31.2Q99.89-30.3 99.37-29.83 98.84-29.35 97.84-29.35ZM119.19-26.15L119.19-26.15Q122.49-26.15 124.47-24.83 126.44-23.5 127.32-21.23 128.19-18.95 128.19-16.2L128.19-16.2 128.19-1.5Q128.19-0.9 127.74-0.45 127.29 0 126.69 0L126.69 0Q125.99 0 125.59-0.45 125.19-0.9 125.19-1.5L125.19-1.5 125.19-16.05Q125.19-18.05 124.54-19.7 123.89-21.35 122.42-22.35 120.94-23.35 118.54-23.35L118.54-23.35Q116.39-23.35 114.47-22.35 112.54-21.35 111.34-19.7 110.14-18.05 110.14-16.05L110.14-16.05 110.14-1.5Q110.14-0.9 109.69-0.45 109.24 0 108.64 0L108.64 0Q107.94 0 107.54-0.45 107.14-0.9 107.14-1.5L107.14-1.5 107.14-23.9Q107.14-24.5 107.57-24.95 107.99-25.4 108.64-25.4L108.64-25.4Q109.29-25.4 109.72-24.95 110.14-24.5 110.14-23.9L110.14-23.9 110.14-19.7 108.99-17.9Q109.09-19.5 110.02-20.98 110.94-22.45 112.39-23.63 113.84-24.8 115.62-25.48 117.39-26.15 119.19-26.15ZM146.49-26.15L146.49-26.15Q148.69-26.15 150.59-25.38 152.49-24.6 153.91-23.38 155.34-22.15 156.14-20.78 156.94-19.4 156.94-18.15L156.94-18.15 156.14-19.35 156.14-24Q156.14-24.65 156.56-25.1 156.99-25.55 157.64-25.55L157.64-25.55Q158.29-25.55 158.71-25.1 159.14-24.65 159.14-24L159.14-24 159.14-2.35Q159.14 1.65 157.49 4.4 155.84 7.15 153.01 8.58 150.19 10 146.59 10L146.59 10Q144.84 10 142.91 9.55 140.99 9.1 139.61 8.4 138.24 7.7 138.04 6.95L138.04 6.95Q137.69 6.5 137.71 6.08 137.74 5.65 138.14 5.35L138.14 5.35Q138.59 5 139.16 5.28 139.74 5.55 140.84 6L140.84 6Q141.29 6.15 142.16 6.45 143.04 6.75 144.21 6.98 145.39 7.2 146.64 7.2L146.64 7.2Q151.14 7.2 153.64 4.63 156.14 2.05 156.14-2.15L156.14-2.15 156.14-6.95 156.69-6.8Q156.24-5 155.19-3.65 154.14-2.3 152.74-1.38 151.34-0.45 149.74 0.03 148.14 0.5 146.54 0.5L146.54 0.5Q143.09 0.5 140.31-1.25 137.54-3 135.94-6 134.34-9 134.34-12.85L134.34-12.85Q134.34-16.65 135.94-19.68 137.54-22.7 140.29-24.43 143.04-26.15 146.49-26.15ZM146.79-23.35L146.79-23.35Q144.09-23.35 141.91-21.98 139.74-20.6 138.51-18.23 137.29-15.85 137.29-12.85L137.29-12.85Q137.29-9.85 138.51-7.45 139.74-5.05 141.91-3.68 144.09-2.3 146.79-2.3L146.79-2.3Q149.54-2.3 151.69-3.65 153.84-5 155.09-7.38 156.34-9.75 156.34-12.85L156.34-12.85Q156.34-15.95 155.09-18.32 153.84-20.7 151.69-22.03 149.54-23.35 146.79-23.35ZM183.63-2.95L200.78-2.95Q201.38-2.95 201.83-2.53 202.28-2.1 202.28-1.5L202.28-1.5Q202.28-0.85 201.83-0.43 201.38 0 200.78 0L200.78 0 182.93 0Q182.28 0 181.86-0.45 181.43-0.9 181.43-1.5L181.43-1.5 181.43-33.5Q181.43-34.1 181.88-34.55 182.33-35 183.03-35L183.03-35Q183.63-35 184.11-34.55 184.58-34.1 184.58-33.5L184.58-33.5 184.58-2.1 183.63-2.95ZM210.18-24.5L210.18-1.5Q210.18-0.9 209.73-0.45 209.28 0 208.68 0L208.68 0Q208.03 0 207.61-0.45 207.18-0.9 207.18-1.5L207.18-1.5 207.18-24.5Q207.18-25.1 207.61-25.55 208.03-26 208.68-26L208.68-26Q209.33-26 209.76-25.55 210.18-25.1 210.18-24.5L210.18-24.5ZM208.68-29.35L208.68-29.35Q207.63-29.35 207.11-29.83 206.58-30.3 206.58-31.2L206.58-31.2 206.58-31.7Q206.58-32.6 207.16-33.08 207.73-33.55 208.73-33.55L208.73-33.55Q209.68-33.55 210.21-33.08 210.73-32.6 210.73-31.7L210.73-31.7 210.73-31.2Q210.73-30.3 210.21-29.83 209.68-29.35 208.68-29.35ZM227.23-36.8L227.23-36.8Q227.98-36.8 228.85-36.65 229.73-36.5 230.38-36.13 231.03-35.75 231.03-35L231.03-35Q231.03-34.45 230.63-34.02 230.23-33.6 229.73-33.6L229.73-33.6Q229.23-33.6 228.48-33.88 227.73-34.15 226.88-34.15L226.88-34.15Q225.83-34.15 225.08-33.68 224.33-33.2 223.93-32.33 223.53-31.45 223.53-30.2L223.53-30.2 223.53-1.5Q223.53-0.9 223.1-0.45 222.68 0 222.03 0L222.03 0Q221.38 0 220.95-0.45 220.53-0.9 220.53-1.5L220.53-1.5 220.53-30.2Q220.53-33.4 222.4-35.1 224.28-36.8 227.23-36.8ZM216.88-25.05L229.13-25.05Q229.73-25.05 230.13-24.65 230.53-24.25 230.53-23.65L230.53-23.65Q230.53-23.05 230.13-22.65 229.73-22.25 229.13-22.25L229.13-22.25 216.88-22.25Q216.33-22.25 215.9-22.68 215.48-23.1 215.48-23.65L215.48-23.65Q215.48-24.3 215.9-24.68 216.33-25.05 216.88-25.05L216.88-25.05ZM246.98 0.5L246.98 0.5Q243.13 0.5 240.18-1.15 237.23-2.8 235.58-5.75 233.93-8.7 233.93-12.65L233.93-12.65Q233.93-16.9 235.6-19.9 237.28-22.9 239.95-24.53 242.63-26.15 245.63-26.15L245.63-26.15Q247.83-26.15 249.9-25.38 251.98-24.6 253.58-23.08 255.18-21.55 256.18-19.35 257.18-17.15 257.23-14.25L257.23-14.25Q257.23-13.65 256.78-13.23 256.32-12.8 255.73-12.8L255.73-12.8 235.68-12.8 235.08-15.5 254.78-15.5 254.13-14.9 254.13-15.9Q253.88-18.25 252.58-19.9 251.28-21.55 249.45-22.4 247.63-23.25 245.63-23.25L245.63-23.25Q244.13-23.25 242.55-22.65 240.98-22.05 239.7-20.78 238.43-19.5 237.63-17.53 236.83-15.55 236.83-12.85L236.83-12.85Q236.83-9.9 238.03-7.5 239.23-5.1 241.48-3.7 243.73-2.3 246.93-2.3L246.93-2.3Q248.63-2.3 250.03-2.8 251.43-3.3 252.5-4.13 253.58-4.95 254.28-5.85L254.28-5.85Q254.83-6.3 255.33-6.3L255.33-6.3Q255.88-6.3 256.25-5.9 256.63-5.5 256.63-5L256.63-5Q256.63-4.4 256.13-3.95L256.13-3.95Q254.63-2.15 252.23-0.83 249.83 0.5 246.98 0.5Z" opacity="1" transform="matrix(1,0,0,1,0,0)" fill="#60656c" class="slogan-text-1" data-fill-palette-color="secondary" id="text-1"></path></svg></g></svg></g></svg></g></svg></g><g></g></svg></g><defs></defs></svg><rect width="395.52" height="230.73929143577814" fill="none" stroke="none" visibility="hidden"></rect></g></svg></g></svg>